<?xml version="1.0" standalone="no"?>
<!DOCTYPE svg PUBLIC "-//W3C//DTD SVG 20010904//EN"
 "http://www.w3.org/TR/2001/REC-SVG-20010904/DTD/svg10.dtd">
<svg version="1.0" xmlns="http://www.w3.org/2000/svg"
 width="512.000000pt" height="512.000000pt" viewBox="0 0 512.000000 512.000000"
 preserveAspectRatio="xMidYMid meet">

<g transform="translate(0.000000,512.000000) scale(0.100000,-0.100000)"
fill="#FF0000" stroke="none">
<path d="M2332 5109 c-580 -52 -1129 -305 -1551 -714 -213 -207 -370 -420
-502 -680 -162 -321 -245 -625 -271 -993 -32 -447 61 -901 271 -1317 132 -260
289 -473 502 -680 376 -365 840 -600 1364 -690 406 -70 886 -26 1280 117 518
188 963 539 1273 1003 87 130 207 368 264 525 122 331 175 701 150 1042 -26
368 -109 672 -271 993 -132 260 -289 473 -502 680 -428 416 -970 663 -1569
715 -132 11 -303 11 -438 -1z m1017 -899 c255 -62 392 -210 415 -445 28 -275
-155 -503 -469 -586 -113 -30 -359 -37 -510 -15 -122 18 -261 51 -375 90 -41
14 -80 26 -87 26 -15 0 -89 -136 -146 -270 -117 -275 -169 -531 -169 -830 0
-323 62 -522 205 -657 111 -105 236 -147 437 -147 200 0 340 33 528 126 175
86 284 172 414 326 111 132 165 153 202 78 25 -51 26 -212 1 -306 -93 -362
-505 -652 -1009 -711 -147 -17 -464 -6 -587 20 -257 55 -436 146 -590 300
-221 221 -311 495 -295 896 13 345 84 650 222 958 85 192 162 322 313 528 12
17 9 25 -26 71 -118 157 -193 344 -173 431 11 53 36 77 77 77 52 0 88 -24 204
-135 58 -57 125 -116 148 -133 l43 -31 56 46 c190 155 442 269 677 308 128 21
381 13 494 -15z"/>
<path d="M2910 3785 c-90 -20 -215 -84 -307 -157 l-77 -62 31 -12 c87 -36 238
-57 413 -58 159 -1 179 1 222 21 60 27 82 61 81 124 -1 62 -27 106 -78 133
-51 27 -190 32 -285 11z"/>
</g>
</svg>
